# OBJ written from D:\Projekty\Diagooo\4_Implementacja\DiagoUnity\DiagoUnity\Assets\_Diago\Art\Meshes\Coin.obj
# Units	meters

o Coin.obj
v 0 0.094345 0
v 0 0.563245 0
v 0 0.094345 -0.926775
v -0.35355 0.094345 -0.85355
v 0.35355 0.094345 -0.85355
v 0 0.563245 -0.926775
v -0.35355 0.563245 -0.85355
v 0.35355 0.563245 -0.85355
v -0.926775 0.094345 0
v -0.85355 0.094345 -0.35355
v -0.655325 0.094345 -0.655325
v 0.655325 0.094345 -0.655325
v 0.926775 0.094345 0
v 0.85355 0.094345 -0.35355
v -0.926775 0.563245 0
v -0.85355 0.563245 -0.35355
v -0.655325 0.563245 -0.655325
v 0.655325 0.563245 -0.655325
v 0.926775 0.563245 0
v 0.85355 0.563245 -0.35355
v -0.85355 0.094345 0.35355
v -0.655325 0.094345 0.655325
v 0.655325 0.094345 0.655325
v 0.85355 0.094345 0.35355
v -0.85355 0.563245 0.35355
v -0.655325 0.563245 0.655325
v 0.655325 0.563245 0.655325
v 0.85355 0.563245 0.35355
v 0 0.094345 0.926775
v -0.35355 0.094345 0.85355
v 0.35355 0.094345 0.85355
v 0 0.563245 0.926775
v -0.35355 0.563245 0.85355
v 0.35355 0.563245 0.85355
v -0.956712 0.019845 -0.956712
v -0.931964 -0.015155 -0.931964
v 0 0.019845 -1.353
v 0 -0.015155 -1.318
v -0.51615 0.019845 -1.2461
v -0.502756 -0.015155 -1.21376
v 0.502756 -0.015155 -1.21376
v 0.51615 0.019845 -1.2461
v 0.956712 0.019845 -0.956712
v 0.931964 -0.015155 -0.931964
v -0.956712 0.637745 -0.956712
v -0.931964 0.672745 -0.931964
v 0 0.637745 -1.353
v 0 0.672745 -1.318
v -0.502756 0.672745 -1.21376
v -0.51615 0.637745 -1.2461
v 0.51615 0.637745 -1.2461
v 0.502756 0.672745 -1.21376
v 0.931964 0.672745 -0.931964
v 0.956712 0.637745 -0.956712
v -1.353 0.019845 0
v -1.318 -0.015155 0
v -1.21376 -0.015155 -0.502756
v -1.2461 0.019845 -0.51615
v 1.353 0.019845 0
v 1.318 -0.015155 0
v 1.21376 -0.015155 -0.502756
v 1.2461 0.019845 -0.51615
v -1.318 0.672745 0
v -1.353 0.637745 0
v -1.2461 0.637745 -0.51615
v -1.21376 0.672745 -0.502756
v 1.318 0.672745 0
v 1.353 0.637745 0
v 1.2461 0.637745 -0.51615
v 1.21376 0.672745 -0.502756
v -1.21376 -0.015155 0.502756
v -1.2461 0.019845 0.51615
v 1.21376 -0.015155 0.502756
v 1.2461 0.019845 0.51615
v -1.2461 0.637745 0.51615
v -1.21376 0.672745 0.502756
v 1.2461 0.637745 0.51615
v 1.21376 0.672745 0.502756
v -0.956712 0.019845 0.956712
v -0.931964 -0.015155 0.931964
v 0 0.019845 1.353
v 0 -0.015155 1.318
v -0.502756 -0.015155 1.21376
v -0.51615 0.019845 1.2461
v 0.51615 0.019845 1.2461
v 0.502756 -0.015155 1.21376
v 0.956712 0.019845 0.956712
v 0.931964 -0.015155 0.931964
v -0.956712 0.637745 0.956712
v -0.931964 0.672745 0.931964
v 0 0.672745 1.318
v 0 0.637745 1.353
v -0.51615 0.637745 1.2461
v -0.502756 0.672745 1.21376
v 0.502756 0.672745 1.21376
v 0.51615 0.637745 1.2461
v 0.956712 0.637745 0.956712
v 0.931964 0.672745 0.931964
v 0 0.005845 -0.926775
v 0 -0.015155 -0.947775
v -0.35355 0.005845 -0.85355
v -0.361586 -0.015155 -0.872951
v 0.35355 0.005845 -0.85355
v 0.361586 -0.015155 -0.872951
v 0 0.651745 -0.926775
v 0 0.672745 -0.947775
v -0.35355 0.651745 -0.85355
v -0.361586 0.672745 -0.872951
v 0.35355 0.651745 -0.85355
v 0.361586 0.672745 -0.872951
v -0.926775 0.005845 0
v -0.947775 -0.015155 0
v -0.872951 -0.015155 -0.361586
v -0.85355 0.005845 -0.35355
v -0.655325 0.005845 -0.655325
v -0.670174 -0.015155 -0.670174
v 0.655325 0.005845 -0.655325
v 0.670174 -0.015155 -0.670174
v 0.926775 0.005845 0
v 0.947775 -0.015155 0
v 0.85355 0.005845 -0.35355
v 0.872951 -0.015155 -0.361586
v -0.926775 0.651745 0
v -0.947775 0.672745 0
v -0.85355 0.651745 -0.35355
v -0.872951 0.672745 -0.361586
v -0.655325 0.651745 -0.655325
v -0.670174 0.672745 -0.670174
v 0.655325 0.651745 -0.655325
v 0.670174 0.672745 -0.670174
v 0.926775 0.651745 0
v 0.947775 0.672745 0
v 0.85355 0.651745 -0.35355
v 0.872951 0.672745 -0.361586
v -0.85355 0.005845 0.35355
v -0.872951 -0.015155 0.361586
v -0.655325 0.005845 0.655325
v -0.670174 -0.015155 0.670174
v 0.655325 0.005845 0.655325
v 0.670174 -0.015155 0.670174
v 0.872951 -0.015155 0.361586
v 0.85355 0.005845 0.35355
v -0.85355 0.651745 0.35355
v -0.872951 0.672745 0.361586
v -0.655325 0.651745 0.655325
v -0.670174 0.672745 0.670174
v 0.655325 0.651745 0.655325
v 0.670174 0.672745 0.670174
v 0.85355 0.651745 0.35355
v 0.872951 0.672745 0.361586
v 0 0.005845 0.926775
v 0 -0.015155 0.947775
v -0.35355 0.005845 0.85355
v -0.361586 -0.015155 0.872951
v 0.361586 -0.015155 0.872951
v 0.35355 0.005845 0.85355
v 0 0.651745 0.926775
v 0 0.672745 0.947775
v -0.35355 0.651745 0.85355
v -0.361586 0.672745 0.872951
v 0.35355 0.651745 0.85355
v 0.361586 0.672745 0.872951
vn 0 -1 0
vn 0 1 0
vn 0.499529 0.70766 -0.499688
vn 0.270908 0.706553 -0.653752
vn -0.706553 -0.70766 -0.000112384
vn -0.653832 -0.706553 -0.270716
vn 0.653832 0.706552 -0.270717
vn -0.270717 0.706552 -0.653832
vn -0.499688 0.70766 -0.499529
vn 0.653752 0.706553 0.270908
vn 0.706553 0.70766 -0.000112384
vn 0.706553 -0.70766 0.000112384
vn 0.653832 -0.706553 0.270716
vn -0.653752 0.706553 -0.270908
vn -0.706553 0.70766 0.000112384
vn 0.499688 0.70766 0.499529
vn 0.653752 -0.706553 -0.270908
vn -0.499529 0.70766 0.499688
vn -0.270908 0.706553 0.653752
vn -0.499529 -0.70766 -0.499688
vn -0.270908 -0.706553 -0.653752
vn 0.270908 -0.706553 0.653752
vn -0.000112377 -0.70766 0.706553
vn 0.000112377 0.70766 0.706553
vn 0.499529 -0.70766 0.499688
vn 0.270717 0.706552 0.653832
vn -0.499688 -0.70766 0.499529
vn -0.653752 -0.706553 0.270908
vn -0.000112377 0.70766 -0.706553
vn 0.000112377 -0.70766 -0.706553
vn 0.270716 -0.706553 -0.653832
vn -0.653832 0.706552 0.270717
vn -0.270716 -0.706553 0.653832
vn 0.499688 -0.70766 -0.499529
vn 0.707107 0 -0.707107
vn 0.382687 0 -0.923878
vn 0.382687 0 0.923878
vn 0.707107 0 0.707107
vn -1 0 0
vn -0.923878 0 0.382687
vn 1 0 0
vn 0.923878 0 -0.382687
vn -0.382687 0 -0.923878
vn -0.707107 0 -0.707107
vn 0 0 -1
vn 0 0 1
vn -0.707107 0 0.707107
vn -0.923878 0 -0.382687
vn 0.923878 0 0.382687
vn -0.382687 0 0.923878
vn 0.270718 -0.706553 0.65383
vn 0.499688 -0.70766 0.499529
vn -0.65383 -0.706553 0.270718
vn -0.499529 -0.70766 0.499688
vn -0.653741 0.706566 -0.270903
vn -0.70601 0.708201 6.0494e-005
vn 6.30787e-005 0.707107 -0.707107
vn -0.270716 0.706565 -0.653819
vn -0.49954 -0.707648 -0.499695
vn -0.271077 -0.706012 -0.654267
vn -0.707106 -0.707107 6.30862e-005
vn -0.653818 -0.706565 -0.270716
vn 0.706552 -0.707661 -0.000112399
vn 0.65383 -0.706553 -0.270718
vn 0.653751 -0.706554 0.270909
vn -0.499695 0.707647 -0.49954
vn 0.706553 0.70766 0.000112407
vn 0.653831 0.706553 0.270718
vn -6.30862e-005 -0.707107 -0.707106
vn -0.653256 0.707107 0.27066
vn 0.270718 0.706553 -0.653831
vn 0.49953 0.707659 0.499688
vn 0.499529 -0.70766 -0.499688
vn -0.270909 -0.706554 0.653751
vn 0.000112399 -0.707661 0.706552
vn -0.270718 0.706553 0.653831
vn -0.499183 0.7082 0.499269
vn 0.653751 0.706553 -0.27091
vn 0.499688 0.707659 -0.49953
vn 0.270965 -0.706012 -0.654313
vn 0.27091 0.706553 0.653751
vn -0.000112399 0.70766 0.706553
vn -0.382689 0 0.923877
vn -0.382689 0 -0.923877
vn 0.923877 0 0.382689
vn 0.923877 0 -0.382689
vn -0.923877 0 -0.382689
vn 0.382689 0 0.923877
vn 0.382689 0 -0.923877
vn -0.923877 0 0.382689
vn -0.382689 0 0.923877
vn -0.923877 0 -0.382689
vn 0.923877 0 -0.382689
vn -0.382689 0 -0.923877
vn 0.382689 0 0.923877
vn -0.923877 0 0.382689
vn 0.923877 0 0.382689
vn 0.382689 0 -0.923877
vn -1.01676e-010 -1 -4.91322e-010
vn 4.91322e-010 -1 -1.01676e-010
vn -4.91322e-010 -1 1.01676e-010
vn 6.94831e-010 -1 6.94831e-010
vn 1.01676e-010 -1 -4.91322e-010
vn -6.94831e-010 -1 6.94831e-010
vn 4.91322e-010 -1 1.01676e-010
vn -4.91322e-010 -1 -1.01676e-010
vn -1.01676e-010 -1 4.91322e-010
vn 6.94831e-010 -1 -6.94831e-010
vn -6.94831e-010 -1 -6.94831e-010
vn 1.01676e-010 -1 4.91322e-010
vt 0.733109 0.508164
vt 0.561058 0.681181
vt 0.505863 0.600953
vt 0.488166 0.508928
vt 0.505863 0.413478
vt 0.558416 0.33347
vt 0.274208 0.721024
vt 0.0311267 0.722118
vt 0.048851 0.626329
vt 0.101192 0.548957
vt 0.4489 0.546316
vt 0.501454 0.626329
vt 0.519151 0.721788
vt 0.638422 0.280909
vt 0.733873 0.263206
vt 0.97619 0.509258
vt 0.958466 0.600953
vt 0.903528 0.678584
vt 0.501454 0.813815
vt 0.446259 0.894042
vt 0.273444 0.476063
vt 0.368895 0.49376
vt 0.734203 0.751245
vt 0.638422 0.733521
vt 0.825897 0.280909
vt 0.906125 0.336111
vt 0.273114 0.964107
vt 0.18142 0.946383
vt 0.103789 0.891446
vt 0.368895 0.946383
vt 0.958466 0.413478
vt 0.825897 0.733521
vt 0.048851 0.813815
vt 0.18142 0.49376
vt 0.380343 0.158024
vt 0.440175 0.158024
vt 0.440175 0.166382
vt 0.380343 0.166369
vt 0.739389 0.081881
vt 0.679495 0.081881
vt 0.679495 0.0735233
vt 0.739389 0.0735359
vt 0.320495 0.158024
vt 0.320495 0.166382
vt 0.55982 0.158024
vt 0.619654 0.158024
vt 0.619654 0.166369
vt 0.55982 0.166382
vt 0.2007 0.158024
vt 0.260618 0.158024
vt 0.260618 0.166369
vt 0.2007 0.166382
vt 0.260618 0.081881
vt 0.2007 0.081881
vt 0.2007 0.0735233
vt 0.260618 0.0735359
vt 0.679495 0.158024
vt 0.739389 0.158024
vt 0.739389 0.166369
vt 0.679495 0.166382
vt 0.140617 0.158024
vt 0.140617 0.166369
vt 0.320495 0.081881
vt 0.320495 0.0735233
vt 0.85937 0.158024
vt 0.91973 0.158024
vt 0.91973 0.166382
vt 0.85937 0.166369
vt 0.619654 0.081881
vt 0.55982 0.081881
vt 0.55982 0.0735233
vt 0.619654 0.0735359
vt 0.08026 0.081881
vt 0.01976 0.081881
vt 0.01976 0.0735359
vt 0.08026 0.0735233
vt 0.98023 0.158024
vt 0.98023 0.166369
vt 0.140617 0.081881
vt 0.140617 0.0735359
vt 0.08026 0.158024
vt 0.08026 0.166382
vt 0.85937 0.081881
vt 0.79929 0.081881
vt 0.79929 0.0735233
vt 0.85937 0.0735359
vt 0.5 0.158024
vt 0.5 0.166369
vt 0.5 0.081881
vt 0.440175 0.081881
vt 0.440175 0.0735233
vt 0.5 0.0735359
vt 0.79929 0.158024
vt 0.79929 0.166382
vt 0.98023 0.081881
vt 0.91973 0.081881
vt 0.91973 0.0735233
vt 0.98023 0.0735359
vt 0.380343 0.081881
vt 0.380343 0.0735359
vt 0.01976 0.158024
vt 0.01976 0.166369
vt 0.55982 0.0260267
vt 0.619653 0.0260267
vt 0.619654 0.0308852
vt 0.55982 0.0308928
vt 0.320495 0.0260267
vt 0.380343 0.0260267
vt 0.380343 0.0308852
vt 0.320495 0.0308928
vt 0.2007 0.209012
vt 0.260618 0.20902
vt 0.260618 0.213877
vt 0.2007 0.213877
vt 0.01976 0.20902
vt 0.08026 0.209012
vt 0.08026 0.213877
vt 0.01976 0.213877
vt 0.140617 0.0308852
vt 0.08026 0.0308928
vt 0.08026 0.0260267
vt 0.140618 0.0260267
vt 0.260618 0.0308852
vt 0.2007 0.0308928
vt 0.2007 0.0260267
vt 0.260618 0.0260267
vt 0.739385 0.0260267
vt 0.79929 0.0260267
vt 0.79929 0.0308928
vt 0.739389 0.0308852
vt 0.679495 0.0260267
vt 0.679495 0.0308928
vt 0.140617 0.20902
vt 0.140618 0.213877
vt 0.739385 0.213877
vt 0.679495 0.213877
vt 0.679495 0.209012
vt 0.739389 0.20902
vt 0.01976 0.0260267
vt 0.01976 0.0308852
vt 0.320495 0.213877
vt 0.320495 0.209012
vt 0.98023 0.213877
vt 0.91973 0.213877
vt 0.91973 0.209012
vt 0.98023 0.20902
vt 0.619653 0.213877
vt 0.619654 0.20902
vt 0.85937 0.0260267
vt 0.85937 0.0308852
vt 0.440175 0.0260267
vt 0.5 0.0260267
vt 0.5 0.0308852
vt 0.440175 0.0308928
vt 0.440175 0.213877
vt 0.380343 0.213877
vt 0.380343 0.20902
vt 0.440175 0.209012
vt 0.79929 0.213877
vt 0.79929 0.209012
vt 0.85937 0.213877
vt 0.85937 0.20902
vt 0.98023 0.0308852
vt 0.91973 0.0308928
vt 0.91973 0.0260267
vt 0.98023 0.0260267
vt 0.55982 0.213877
vt 0.5 0.213877
vt 0.5 0.20902
vt 0.55982 0.209012
vt 0.380342 0.224149
vt 0.440175 0.224149
vt 0.08026 0.224149
vt 0.14062 0.224149
vt 0.679495 0.224149
vt 0.739371 0.224149
vt 0.79929 0.224149
vt 0.85937 0.224149
vt 0.2007 0.224149
vt 0.499999 0.224149
vt 0.55982 0.224149
vt 0.91973 0.224149
vt 0.98023 0.224149
vt 0.320495 0.224149
vt 0.619649 0.224149
vt 0.260619 0.224149
vt 0.01976 0.224149
vt 0.440175 0.015747
vt 0.380342 0.015747
vt 0.2007 0.015747
vt 0.260619 0.015747
vt 0.79929 0.015747
vt 0.739371 0.015747
vt 0.08026 0.015747
vt 0.14062 0.015747
vt 0.01976 0.015747
vt 0.55982 0.015747
vt 0.499999 0.015747
vt 0.320495 0.015747
vt 0.679495 0.015747
vt 0.91973 0.015747
vt 0.85937 0.015747
vt 0.619649 0.015747
vt 0.98023 0.015747
usemtl defaultMat
g Coin
f 1/1/1 22/2/1 21/3/1
f 21/3/1 9/4/1 1/1/1
f 1/1/1 9/4/1 10/5/1
f 10/5/1 11/6/1 1/1/1
f 2/7/2 19/8/2 20/9/2
f 20/9/2 18/10/2 2/7/2
f 2/7/2 17/11/2 16/12/2
f 16/12/2 15/13/2 2/7/2
f 1/1/1 11/6/1 4/14/1
f 4/14/1 3/15/1 1/1/1
f 1/1/1 13/16/1 24/17/1
f 24/17/1 23/18/1 1/1/1
f 2/7/2 15/13/2 25/19/2
f 25/19/2 26/20/2 2/7/2
f 2/7/2 6/21/2 7/22/2
f 7/22/2 17/11/2 2/7/2
f 1/1/1 29/23/1 30/24/1
f 30/24/1 22/2/1 1/1/1
f 1/1/1 3/15/1 5/25/1
f 5/25/1 12/26/1 1/1/1
f 2/7/2 32/27/2 34/28/2
f 34/28/2 27/29/2 2/7/2
f 2/7/2 26/20/2 33/30/2
f 33/30/2 32/27/2 2/7/2
f 1/1/1 12/26/1 14/31/1
f 14/31/1 13/16/1 1/1/1
f 1/1/1 23/18/1 31/32/1
f 31/32/1 29/23/1 1/1/1
f 2/7/2 27/29/2 28/33/2
f 28/33/2 19/8/2 2/7/2
f 2/7/2 18/10/2 8/34/2
f 8/34/2 6/21/2 2/7/2
f 54/35/3 51/36/4 52/37/4 53/38/3
f 55/39/5 58/40/6 57/41/6 56/42/5
f 69/43/7 54/35/3 53/38/3 70/44/7
f 50/45/8 45/46/9 46/47/9 49/48/8
f 77/49/10 68/50/11 67/51/11 78/52/10
f 59/53/12 74/54/13 73/55/13 60/56/12
f 65/57/14 64/58/15 63/59/15 66/60/14
f 97/61/16 77/49/10 78/52/10 98/62/16
f 62/63/17 59/53/12 60/56/12 61/64/17
f 89/65/18 93/66/19 94/67/19 90/68/18
f 35/69/20 39/70/21 40/71/21 36/72/20
f 85/73/22 81/74/23 82/75/23 86/76/22
f 93/66/19 92/77/24 91/78/24 94/67/19
f 74/54/13 87/79/25 88/80/25 73/55/13
f 96/81/26 97/61/16 98/62/16 95/82/26
f 79/83/27 72/84/28 71/85/28 80/86/27
f 51/36/4 47/87/29 48/88/29 52/37/4
f 58/40/6 35/69/20 36/72/20 57/41/6
f 37/89/30 42/90/31 41/91/31 38/92/30
f 64/58/15 75/93/32 76/94/32 63/59/15
f 81/95/23 84/96/33 83/97/33 82/98/23
f 72/84/28 55/39/5 56/42/5 71/85/28
f 47/87/29 50/45/8 49/48/8 48/88/29
f 68/50/11 69/43/7 70/44/7 67/51/11
f 87/79/25 85/73/22 86/76/22 88/80/25
f 84/96/33 79/83/27 80/86/27 83/97/33
f 43/99/34 62/63/17 61/64/17 44/100/34
f 92/101/24 96/81/26 95/82/26 91/102/24
f 42/90/31 43/99/34 44/100/34 41/91/31
f 45/46/9 65/57/14 66/60/14 46/47/9
f 75/93/32 89/65/18 90/68/18 76/94/32
f 39/70/21 37/89/30 38/92/30 40/71/21
f 43/99/35 42/90/36 51/36/36 54/35/35
f 96/81/37 85/73/37 87/79/38 97/61/38
f 55/39/39 72/84/40 75/93/40 64/58/39
f 59/53/41 62/63/42 69/43/42 68/50/41
f 50/45/43 39/70/43 35/69/44 45/46/44
f 51/36/36 42/90/36 37/89/45 47/87/45
f 81/74/46 85/73/37 96/81/37 92/101/46
f 75/93/40 72/84/40 79/83/47 89/65/47
f 35/69/44 58/40/48 65/57/48 45/46/44
f 87/79/38 74/54/49 77/49/49 97/61/38
f 69/43/42 62/63/42 43/99/35 54/35/35
f 79/83/47 84/96/50 93/66/50 89/65/47
f 65/57/48 58/40/48 55/39/39 64/58/39
f 77/49/49 74/54/49 59/53/41 68/50/41
f 37/89/45 39/70/43 50/45/43 47/87/45
f 93/66/50 84/96/50 81/95/46 92/77/46
f 101/103/51 115/104/52 116/105/52 102/106/51
f 121/107/53 117/108/54 118/109/54 122/110/53
f 150/111/55 132/112/56 131/113/56 149/114/55
f 158/115/57 162/116/58 161/117/58 157/118/57
f 140/119/59 155/120/60 156/121/60 139/122/59
f 120/123/61 141/124/62 142/125/62 119/126/61
f 111/127/63 135/128/64 136/129/64 112/130/63
f 114/131/65 111/127/63 112/130/63 113/132/65
f 162/116/58 148/133/66 147/134/66 161/117/58
f 123/135/67 125/136/68 126/137/68 124/138/67
f 151/139/69 156/121/60 155/120/60 152/140/69
f 133/141/70 131/113/56 132/112/56 134/142/70
f 157/143/57 159/144/71 160/145/71 158/146/57
f 125/136/68 127/147/72 128/148/72 126/137/68
f 135/128/64 137/149/73 138/150/73 136/129/64
f 103/151/74 99/152/75 100/153/75 104/154/74
f 109/155/76 129/156/77 130/157/77 110/158/76
f 143/159/78 123/135/67 124/138/67 144/160/78
f 145/161/79 143/159/78 144/160/78 146/162/79
f 115/104/52 114/131/65 113/132/65 116/105/52
f 152/163/69 154/164/80 153/165/80 151/166/69
f 107/167/81 105/168/82 106/169/82 108/170/81
f 141/124/62 140/119/59 139/122/59 142/125/62
f 134/142/70 130/157/77 129/156/77 133/141/70
f 148/133/66 150/111/55 149/114/55 147/134/66
f 119/126/61 121/107/53 122/110/53 120/123/61
f 159/144/71 145/161/79 146/162/79 160/145/71
f 127/147/72 107/167/81 108/170/81 128/148/72
f 117/108/54 103/151/74 104/154/74 118/109/54
f 137/149/73 153/165/80 154/164/80 138/150/73
f 105/168/82 109/155/76 110/158/76 106/169/82
f 99/152/75 101/103/51 102/106/51 100/153/75
f 18/171/47 129/156/47 109/155/83 8/172/83
f 34/173/84 161/117/84 147/134/44 27/174/44
f 16/175/85 125/136/85 123/135/41 15/176/41
f 25/177/86 143/159/86 145/161/35 26/178/35
f 27/174/44 147/134/44 149/114/87 28/179/87
f 6/180/46 105/168/46 107/167/88 7/181/88
f 33/182/89 159/144/89 157/143/45 32/183/45
f 20/184/90 133/141/90 129/156/47 18/171/47
f 17/185/38 127/147/38 125/136/85 16/175/85
f 26/178/35 145/161/35 159/144/89 33/182/89
f 15/176/41 123/135/41 143/159/86 25/177/86
f 28/179/87 149/114/87 131/113/39 19/186/39
f 32/187/45 157/118/45 161/117/84 34/173/84
f 19/186/39 131/113/39 133/141/90 20/184/90
f 7/181/88 107/167/88 127/147/38 17/185/38
f 8/172/83 109/155/83 105/168/46 6/180/46
f 5/188/91 103/151/91 117/108/47 12/189/47
f 119/126/39 142/125/92 24/190/92 13/191/39
f 21/192/93 135/128/93 111/127/41 9/193/41
f 139/122/44 156/121/94 31/194/94 23/195/44
f 31/194/94 156/121/94 151/139/45 29/196/45
f 4/197/95 101/103/95 99/152/46 3/198/46
f 14/199/96 121/107/96 119/126/39 13/191/39
f 111/127/41 114/131/97 10/200/97 9/193/41
f 30/201/98 153/165/98 137/149/35 22/202/35
f 115/104/38 101/103/95 4/197/95 11/203/38
f 99/152/46 103/151/91 5/188/91 3/198/46
f 117/108/47 121/107/96 14/199/96 12/189/47
f 151/166/45 153/165/98 30/201/98 29/204/45
f 24/190/92 142/125/92 139/122/44 23/195/44
f 137/149/35 135/128/93 21/192/93 22/202/35
f 10/200/97 114/131/97 115/104/38 11/203/38
f 158/146/2 160/145/2 94/67/2 91/78/2
f 124/138/2 126/137/2 66/60/2 63/59/2
f 132/112/2 67/51/2 70/44/2 134/142/2
f 162/116/2 95/82/2 98/62/2 148/133/2
f 108/170/2 49/48/2 46/47/2 128/148/2
f 106/169/2 48/88/2 49/48/2 108/170/2
f 106/169/2 110/158/2 52/37/2 48/88/2
f 158/115/2 91/102/2 95/82/2 162/116/2
f 144/160/2 76/94/2 90/68/2 146/162/2
f 124/138/2 63/59/2 76/94/2 144/160/2
f 150/111/2 148/133/2 98/62/2 78/52/2
f 110/158/2 130/157/2 53/38/2 52/37/2
f 160/145/2 146/162/2 90/68/2 94/67/2
f 132/112/2 150/111/2 78/52/2 67/51/2
f 134/142/2 70/44/2 53/38/2 130/157/2
f 126/137/2 128/148/2 46/47/2 66/60/2
f 100/153/1 102/106/99 40/71/99 38/92/1
f 120/123/1 122/110/100 61/64/100 60/56/1
f 112/130/1 136/129/101 71/85/101 56/42/1
f 102/106/99 116/105/102 36/72/102 40/71/99
f 100/153/1 38/92/1 41/91/103 104/154/103
f 122/110/100 118/109/104 44/100/104 61/64/100
f 120/123/1 60/56/1 73/55/105 141/124/105
f 113/132/106 57/41/106 36/72/102 116/105/102
f 154/164/107 83/97/107 80/86/108 138/150/108
f 104/154/103 41/91/103 44/100/104 118/109/104
f 152/163/1 82/98/1 83/97/107 154/164/107
f 141/124/105 73/55/105 88/80/109 140/119/109
f 155/120/110 140/119/109 88/80/109 86/76/110
f 152/140/1 155/120/110 86/76/110 82/75/1
f 112/130/1 56/42/1 57/41/106 113/132/106
f 136/129/101 138/150/108 80/86/108 71/85/101
